<svg xmlns="http://www.w3.org/2000/svg" viewBox="0 0 123 115">
  <style type="text/css">
    .cls-0 {fill:#333535;}
    .cls-1 {fill:#FF84A7;}
    .cls-2 {fill:#ED668F;}
    .cls-3 {fill:none;stroke:#333535;stroke-width:1.929;stroke-linecap:round;stroke-linejoin:round;stroke-miterlimit:10;}
    .cls-4 {fill:#FFFFFF;}
    .cls-5 {fill:none;stroke:#FFFFFF;stroke-width:1.627;stroke-linecap:round;stroke-linejoin:round;stroke-miterlimit:10;}
    .cls-6 {fill:none;stroke:#FFFFFF;stroke-width:1.627;stroke-miterlimit:10;}
    .cls-7 {fill:none;stroke:#FFFFFF;stroke-width:1.627;stroke-linecap:round;stroke-miterlimit:10;}
    .cls-8 {fill:none;stroke:#FFFFFF;stroke-width:1.627;stroke-linecap:round;}
    .cls-9 {fill:none;stroke:#FFFFFF;stroke-width:1.5693;stroke-linecap:round;stroke-linejoin:round;stroke-miterlimit:10;}
    .cls-10 {fill:none;stroke:#FFFFFF;stroke-width:1.5701;stroke-linecap:round;stroke-linejoin:round;stroke-miterlimit:10;}
    .cls-11 {fill:none;stroke:#FFFFFF;stroke-width:1.7378;stroke-linecap:round;stroke-linejoin:round;stroke-miterlimit:10;}
    .cls-12 {fill:none;stroke:#FFFFFF;stroke-width:1.7378;stroke-linecap:round;}
  </style>
  <path class="cls-1" d="m85.1 23.9c2.1-2 4.6-5.6 4.6-11.5 0-4.7-1.9-7.3-3.4-9-1.4 3.2-4.7 9-12.2 12.9l-0.1 0.6-0.6-0.3c-2-0.7-5.8-2-13-2-5 0-9.3 0.7-13 2.1l-0.3 0.1-0.2-0.1c-6.4-3.3-10.2-9-12.1-13.1-1.2 1.6-2.8 4.1-2.8 8.3 0 4.7 2 9 4.3 11.5l0.2 0.3-0.1 0.9-0.8 0.2c-2.3-0.6-4.5-1.1-7.1-1.1-8.3 0-14.4 3.8-19.1 8.4 2.3 3.2 7.5 7.8 15.5 8.5 1.8 0.2 4.2-0.1 5.9-0.4l1-0.1v3.2c0 8.6 2.5 16.1 6.8 22.4-3.5 4.6-15.3 21-15.5 43.8h73.1c-0.1-19.6-9.9-37-13.1-41.5l-0.4-0.5 0.4-0.5c4-5.6 6.5-14.1 6.5-21.7v-4.8l1-0.3c1.4 0.3 3.5 0.6 5.3 0.6 5.8 0 11.5-2.7 16.4-8.5-4.7-4.2-10.2-8.6-19.4-8.6-2.3 0-4.3 0.3-6.7 0.9l-1 0.2-0.1-0.9z"/>
  <path class="cls-2" d="m80.7 21c1 4.4-1.8 9.4-6.2 11.9-6.6 3.5-9.9 9.7-10 16.5v4.7l2.9 0.3 6.7 1.1c3.6 1.4 7.8 4.1 9.8 9.1 3.8-5.5 6.2-12.1 6.2-21v-2.7l1-0.3c1.4 0.3 3.4 0.6 5.3 0.6 5.8 0 11.5-2.7 16.4-8.7-2.7-1-4.9-1.9-8.2-2.5-2.7 1-5.2 1.4-8.5 2-1.7 0.4-4.2 1.9-8-1-1.7-4.4-5.1-8.1-7.4-10z"/>
  <path class="cls-2" d="m85.1 67.9-0.5-0.5c-3.9 3.1-10.1 5.5-24.1 9v20.2c1.6 5 5.2 10 8.7 12.8h27.2c0.2-14.9-5-30.9-11.3-41.5z"/>
  <path class="cls-3" d="m86.1 23.9c2.4-2.5 4-6 4-11.5 0-4.3-1.5-7.3-3.5-9.5-1.2 2.7-4.2 9.1-12.6 13-2.1-0.8-5.9-2.1-13.6-2.2-4 0-8.5 0.4-13 2-5.5-2.8-9.4-7.8-12-12.8-0.3-0.8-3.4 2.5-4 7.1-0.5 4.5 1.1 9.9 4.1 13.9-2-0.5-4.1-1-7-1-7.4 0-13.9 3-19.5 8.6-0.9 0.9-0.4 0.9 0.1 1.6 2.5 3 7.3 8.4 16.5 8.5 1.9 0 3.5-0.2 5.3-0.6-0.3 9 2 17.9 5.7 23.6"/>
  <path class="cls-3" d="m86.1 23.9c2.3-0.5 4.4-1 6.8-1 7.2-0.2 13 2.1 20.1 8.2 0.9 0.9 0.5 1 0 1.8-2.5 3.1-7.4 8.2-16.6 8.7-1.8 0-3.4-0.2-6.3-0.6 0.5 6.4-1.1 15.9-5.5 22.8"/>
  <path class="cls-0" d="m17.9 29.6c4.5-1.1 10-1.2 15.1 0.3 1.5 0.5 0.9 1.8-0.4 5.5-1 2.1-6.2-2.9-12.1-4.4-1.5-0.4-3.9 0-3-1.3l0.4-0.1z"/>
  <path class="cls-0" d="m103.6 29.5c-4.5-1-9.2-1-15 0.4-1.5 0.5-0.6 2.1 0.3 5 1 2.5 3 0.1 8.7-2.3 5-2.2 7-2 6.3-2 0.7 0 0.7-0.2 0.2-0.9l-0.5-0.2z"/>
  <path class="cls-3" d="m36.6 66.1c-4.2 5.5-13.6 20.3-13.7 43.8l74 0.2s0.7 0 0 0c0-18-6.2-33.1-12.3-42.2"/>
  <path class="cls-4" d="m43.9 43.4c-0.9-2 0.2-5 2.6-5.3 2.1-0.1 4 2.5 2.5 5.3-0.1 0.1-5 0.2-5.1 0z"/>
  <path class="cls-4" d="m72.9 43.4c-1.5-2 0.1-5.5 2.5-5.3 2 0.1 3.7 2.4 2.2 5.3-0.1 0.1-4.5 0.2-4.7 0z"/>
  <path class="cls-1" d="m60.4 53.9c-7 0-12.5 0.5-16 2.6-4.8 2.6-8 7-8 12.5s3 10.7 9.1 13.1c4.1 1.8 8.7 1.9 14.9 1.9s11.2-0.1 15.1-1.9c5.1-2.2 9-6.4 9-12.6 0-6.1-3.4-10.1-8.4-12.9-3.1-1.7-7.7-2.5-15.7-2.7z"/>
  <path class="cls-5" d="m67 14.9v13.5l-6 6"/>
  <circle class="cls-6" cx="59.9" cy="35.6" r="1.4"/>
  <polyline class="cls-6" points="67 28.4 74.4 28.4 74.5 28.4"/>
  <circle class="cls-6" cx="76" cy="28.4" r="1.5"/>
  <polyline class="cls-6" points="59.9 30.1 53 23.1 52.9 23"/>
  <circle class="cls-6" cx="52" cy="21.9" r="1.4"/>
  <polyline class="cls-6" points="59.9 37.1 59.9 42.9 66.9 49.9 67 50 67 53.5"/>
  <path class="cls-7" d="m60.4 53.9c-7 0-12.5 0.5-15.5 2.2-4.3 2.3-8.5 6.4-8.5 12.9 0 5.4 3 10.6 9.1 13.1 4.1 1.8 8.7 1.9 14.9 1.9s11.2-0.1 14.7-1.5c5-1.9 9.4-6.1 9.4-12.5 0-6.1-3.6-10.6-8.4-13.1-3.5-1.9-7.7-2.8-15.7-3z"/>
  <path class="cls-4" d="m53.1 66.9c1.4-1.2-0.6-5-3.1-5-2.1 0.2-1.6 4.7 2.1 5.1l1-0.1z"/>
  <path class="cls-4" d="m67.5 66c-0.4-2.6 3.1-6.1 4.9-3.4 1 2.8-4 5.9-5.3 3.8l0.4-0.4z"/>
  <path class="cls-8" d="m50.7 73.6c2.7 2 5.9 3.4 9.8 3.4 3.6 0 7.1-1.1 9.9-3.4"/>
  <polyline class="cls-9" points="50.6 83.9 50.6 92 45.1 97.6"/>
  <circle class="cls-10" cx="44" cy="98.6" r="1.4"/>
  <line class="cls-11" x1="42.5" x2="37" y1="98.7" y2="98.7"/>
  <circle class="cls-10" cx="35.4" cy="98.7" r="1.5"/>
  <line class="cls-6" x1="35.4" x2="35.4" y1="100.6" y2="109.4"/>
  <polyline class="cls-6" points="50.5 109.4 50.5 107 59.7 97.6 59.9 96.9 59.9 84.6"/>
  <polyline class="cls-5" points="74.5 54.9 74.5 51.6 80.6 51.6"/>
  <circle class="cls-6" cx="82.6" cy="51.5" r="1.4"/>
  <line class="cls-5" x1="84.4" x2="89" y1="51.5" y2="51.5"/>
  <polyline class="cls-12" points="70.6 83.9 70.6 91.9 76 97.4"/>
  <circle class="cls-12" cx="77.4" cy="98.6" r="1.4"/>
  <polyline class="cls-12" points="78 81.4 78 87.6 82.4 92"/>
  <circle class="cls-12" cx="83.7" cy="93.4" r="1.5"/>
  <line class="cls-12" x1="85.5" x2="94.6" y1="93.5" y2="93.5"/>
  <path class="cls-6" d="m26.1 90.1h13.9"/>
  <circle class="cls-6" cx="41.9" cy="90.1" r="1.5"/>
</svg>
